<?xml version="1.0" encoding="utf-8"?>
<!-- Generator: Adobe Illustrator 22.1.0, SVG Export Plug-In . SVG Version: 6.00 Build 0)  -->
<svg version="1.1" id="Layer_1" xmlns="http://www.w3.org/2000/svg" xmlns:xlink="http://www.w3.org/1999/xlink" x="895px"
	 viewBox="100 200 700 430" style="enable-background:new 0 0 842 595;" xml:space="preserve">
<style type="text/css">
	.st0{fill-rule:evenodd;clip-rule:evenodd;fill:#40B9C2;}
	.st1{fill-rule:evenodd;clip-rule:evenodd;fill:#8ED4DC;}
	.st2{fill-rule:evenodd;clip-rule:evenodd;fill:#63C9D7;}
	.st3{fill-rule:evenodd;clip-rule:evenodd;fill:#58595B;}
	.st4{font-family:'MyriadPro-Regular';}
	.st5{font-size:12px;}
</style>
<g>
	<polygon class="st0" points="175.4,344.1 146.2,327.2 116.9,310.4 116.9,325.3 146.2,342.2 175.4,359.1 204.7,342.2 234,325.3
		234,310.4 204.7,327.2 	"/>
	<path class="st1" d="M201.9,250.9c-8.4-14.6-27.2-19.6-41.8-11.2l-13.9,8l-29.3,16.9l29.3,16.9l29.3,16.9l29.3-16.9l29.3-16.9
		l-0.7-0.4H206C205.7,259.7,204.4,255.1,201.9,250.9z"/>
	<polygon class="st2" points="175.4,313 146.2,296.2 116.9,279.3 116.9,294.2 146.2,311.1 175.4,328 204.7,311.1 234,294.2
		234,279.3 204.7,296.2 	"/>
	<path class="st3" d="M331.1,333.7l-19.6-27.5c2.6-0.7,4.9-1.7,7-3c2.1-1.3,3.9-2.8,5.4-4.7c1.5-1.8,2.7-3.9,3.6-6.3
		c0.9-2.4,1.3-5.1,1.3-8.1c0-3.5-0.6-6.7-1.9-9.6c-1.2-2.9-3-5.3-5.3-7.3c-2.3-2-5.2-3.5-8.5-4.6c-3.4-1.1-7.1-1.6-11.3-1.6h-32.4
		v72.6h12.7v-25.3h16l17.9,25.3H331.1L331.1,333.7z M315.9,284.8c0,3.8-1.3,6.7-4.1,9c-2.7,2.2-6.3,3.3-10.9,3.3h-18.7v-24.5h18.6
		c4.8,0,8.5,1,11.1,3.1C314.6,277.7,315.9,280.7,315.9,284.8L315.9,284.8z M398.2,261.1h-53.7v72.6h54.2v-11.5h-41.6v-19.4h36.4
		v-11.5h-36.4v-18.7h41.1V261.1L398.2,261.1z M477.2,322l-8.2-8.3c-3.1,2.9-6.3,5.2-9.4,6.9c-3.2,1.7-7,2.5-11.4,2.5
		c-3.5,0-6.7-0.7-9.6-2c-2.9-1.3-5.5-3.2-7.6-5.5c-2.1-2.4-3.8-5.1-5-8.2c-1.2-3.1-1.8-6.5-1.8-10.1c0-3.6,0.6-6.9,1.8-10.1
		c1.2-3.1,2.8-5.8,5-8.1c2.1-2.3,4.7-4.1,7.6-5.5c2.9-1.3,6.1-2,9.6-2c4.1,0,7.8,0.8,11.1,2.5c3.2,1.7,6.3,3.8,9.2,6.5l8.2-9.4
		c-1.7-1.7-3.6-3.2-5.5-4.6c-1.9-1.4-4-2.6-6.3-3.6c-2.3-1-4.8-1.8-7.5-2.3c-2.7-0.6-5.8-0.8-9.1-0.8c-5.5,0-10.6,1-15.1,3
		c-4.6,2-8.5,4.7-11.8,8.1c-3.3,3.4-5.9,7.4-7.7,12c-1.8,4.6-2.7,9.4-2.7,14.6c0,5.3,0.9,10.2,2.8,14.7c1.9,4.6,4.4,8.5,7.7,11.9
		c3.3,3.4,7.2,6,11.7,7.9c4.5,1.9,9.4,2.9,14.7,2.9c3.4,0,6.5-0.3,9.3-0.9c2.8-0.6,5.4-1.5,7.7-2.6c2.4-1.1,4.5-2.5,6.6-4
		C473.3,325.8,475.3,324.1,477.2,322L477.2,322z M544.3,261.1h-53.7v72.6h54.2v-11.5h-41.6v-19.4h36.4v-11.5h-36.4v-18.7h41.1V261.1
		L544.3,261.1z M560.8,261.1v72.6h12.7v-72.6H560.8L560.8,261.1z M622.7,316.9l-21.9-55.8h-14.1l30.2,73.1h11.2l30.2-73.1h-13.8
		L622.7,316.9L622.7,316.9z M724.4,261.1h-53.7v72.6h54.2v-11.5h-41.6v-19.4h36.4v-11.5h-36.4v-18.7h41.1V261.1z"/>
</g>
<text transform="matrix(1 0 0 1 269.5142 270.5)" class="st4 st5">`</text>
</svg>
