
<svg xmlns="http://www.w3.org/2000/svg" version="1.1" xmlns:xlink="http://www.w3.org/1999/xlink" preserveAspectRatio="none" x="0px" y="0px" width="960px" height="540px" viewBox="0 0 960 540">
<defs>
<g id="Layer4_0_STROKES_1_FILL">
<path fill="#CCCCCC" stroke="none" d="
M 614.8 287.5
Q 615.0892578125 287.796484375 615.5 287.8 616.5 287.8 617.5 287.8 617.9107421875 287.796484375 618.2 287.5 618.496484375 287.2107421875 618.5 286.8 618.496484375 286.3892578125 618.2 286.1 617.9107421875 285.803515625 617.5 285.8 616.5 285.8 615.5 285.8 615.0892578125 285.803515625 614.8 286.1 614.503515625 286.3892578125 614.5 286.8 614.503515625 287.2107421875 614.8 287.5
M 599.6 284.95
Q 599.1919921875 284.9107421875 598.85 285.15 598.54765625 285.4388671875 598.5 285.85 598.460546875 286.257421875 598.7 286.55 598.9892578125 286.901953125 599.4 286.95 600.4 287.05 601.4 287.15 601.8078125 287.1892578125 602.1 286.9 602.45234375 286.6611328125 602.5 286.25 602.5396484375 285.842578125 602.25 285.5 602.0107421875 285.1978515625 601.6 285.15 600.6 285.05 599.6 284.95
M 606.75 287.2
Q 607.0330078125 287.53046875 607.45 287.55 608.45 287.6 609.45 287.65 609.8646484375 287.67421875 610.15 287.4 610.480859375 287.116796875 610.5 286.7 610.524609375 286.28515625 610.25 285.95 609.9669921875 285.66953125 609.55 285.65 608.55 285.6 607.55 285.55 607.1353515625 285.52578125 606.8 285.8 606.519140625 286.0830078125 606.5 286.5 606.475390625 286.9146484375 606.75 287.2
M 593.6 284.35
Q 592.6248046875 284.2494140625 591.65 284.1 591.238671875 284.04609375 590.9 284.3 590.5642578125 284.5443359375 590.5 284.95 590.445703125 285.362109375 590.7 285.7 590.9435546875 286.035546875 591.35 286.1 592.375 286.2505859375 593.4 286.35 593.8078125 286.3892578125 594.1 286.1 594.45234375 285.8611328125 594.5 285.45 594.5396484375 285.042578125 594.25 284.7 594.0107421875 284.3978515625 593.6 284.35
M 585.75 283.25
Q 585.55 283.225 585.35 283.15 584.953515625 283.0806640625 584.6 283.3 584.23515625 283.506640625 584.1 283.9 584.0302734375 284.2970703125 584.25 284.65 584.455859375 285.0142578125 584.85 285.1 585.05 285.175 585.25 285.2 585.646484375 285.3193359375 586 285.1 586.36484375 284.893359375 586.45 284.5 586.5697265625 284.1029296875 586.35 283.75 586.1439453125 283.385546875 585.75 283.25 Z"/>
</g>
</defs>

<g transform="matrix( 1, 0, 0, 1, -139,-31) ">
<use xlink:href="#Layer4_0_STROKES_1_FILL"/>
</g>
</svg>
