<?xml version="1.0" encoding="utf-8"?>
<!-- Generator: Adobe Illustrator 18.0.0, SVG Export Plug-In . SVG Version: 6.00 Build 0)  -->
<!DOCTYPE svg PUBLIC "-//W3C//DTD SVG 1.1//EN" "http://www.w3.org/Graphics/SVG/1.1/DTD/svg11.dtd">
<svg version="1.1" id="Layer_1" xmlns="http://www.w3.org/2000/svg" xmlns:xlink="http://www.w3.org/1999/xlink" x="0px" y="0px"
	 viewBox="0 0 1920 1280" enable-background="new 0 0 1920 1280" xml:space="preserve">
<rect x="495" y="477.3" opacity="0.8" fill="none"   stroke-opacity="0.5" enable-background="new    " width="180" height="153"/>
<text transform="matrix(1 0 0 1 779.1694 613.8418)" fill="#5F5D5E"  font-family='Poppins-Extra-Bold' font-size="18">Text Messages</text>
<g>
	<text transform="matrix(1 0 0 1 1008.0343 613.8418)" fill="#5F5D5E"  font-family='Poppins-Extra-Bold' font-size="18">Physical Mail</text>
</g>
<g>
	<text transform="matrix(1 0 0 1 1260.939 613.8417)" fill="#5F5D5E"  font-family='Poppins-Extra-Bold' font-size="18">Email</text>
</g>
<g>
	<text transform="matrix(1 0 0 1 1455.1083 613.842)" fill="#5F5D5E"  font-family='Poppins-Extra-Bold' font-size="18">Autodailing</text>
</g>
<g>
	<text transform="matrix(1 0 0 1 1672.6987 613.8417)" fill="#5F5D5E"  font-family='Poppins-Extra-Bold' font-size="18">Online Chat</text>
</g>
<g>
	<text transform="matrix(1 0 0 1 549.5512 542.7518)" fill="#5F5D5E" font-family='Poppins-Extra-Bold' font-size="24">Automated</text>
	<text transform="matrix(1 0 0 1 554.0512 571.5518)" fill="#5F5D5E" font-family='Poppins-Extra-Bold' font-size="24">Outbound </text>
	<text transform="matrix(1 0 0 1 519.7512 600.3518)" fill="#5F5D5E" font-family='Poppins-Extra-Bold' font-size="24">Communication</text>
</g>
<rect x="648" y="717" opacity="0.8" fill="none" enable-background="new    " width="180" height="153"/>
<g>
	<text transform="matrix(1 0 0 1 686.0428 782.3974)" fill="#5F5D5E" font-family='Poppins-Extra-Bold' font-size="24">Inbound </text>
	<text transform="matrix(1 0 0 1 671.0428 811.1974)" fill="#5F5D5E" font-family='Poppins-Extra-Bold' font-size="24">Self Service</text>
</g>
<g>
	<text transform="matrix(1 0 0 1 916.6079 852.7758)" fill="#2E3192" font-family='Poppins-Extra-Bold' font-size="18">Inbound Voice Recognition Menu</text>
</g>
<rect x="800.9" y="954.1" opacity="0.8" fill="none" enable-background="new    " width="900" height="153"/>
<g>
	<text transform="matrix(1 0 0 1 823.831 1033.9734)" fill="#5F5D5E" font-family='Poppins-Extra-Bold' font-size="24">Payments</text>
</g>
<!-- <path fill="#782c19" d="M847.1,464.9v-36.2c0-12.4-10.1-22.5-22.5-22.5H426v5h398.6c9.6,0,17.5,7.9,17.5,17.5v36.2h-10.5l13,13
	l13-13H847.1z"/>
<path fill="#782c19" d="M1234.3,704.4v-14.1c0-12.4-10.1-22.5-22.5-22.5H864.6c-9.6,0-17.5-7.9-17.5-17.5v-19.6h-5v19.6
	c0,12.4,10.1,22.5,22.5,22.5h347.2c9.6,0,17.5,7.9,17.5,17.5v14.1h-10.5l13,13l13-13H1234.3z"/>
<path fill="#782c19" d="M1067.3,464.9v-72.4c0-12.4-10.1-22.5-22.5-22.5H426v5h618.8c9.6,0,17.5,7.9,17.5,17.5v72.4h-10.5l13,13
	l13-13H1067.3z"/>
<path fill="#782c19" d="M1260.6,704.4v-25.7c0-12.4-10.1-22.5-22.5-22.5h-153.3c-9.6,0-17.5-7.9-17.5-17.5v-8h-5v8
	c0,12.4,10.1,22.5,22.5,22.5h153.3c9.6,0,17.5,7.9,17.5,17.5v25.7h-10.5l13,13l13-13H1260.6z"/> -->
<path fill="#626c78" d="M1287.6,464.9V356.2c0-12.4-10.1-22.5-22.5-22.5H426v5h839.1c9.6,0,17.5,7.9,17.5,17.5v108.7h-10.5l13,13
	l13-13L1287.6,464.9z"/>
<polygon fill="#626c78" points="1287.6,704.4 1287.6,630.7 1282.6,630.7 1282.6,704.4 1272.1,704.4 1285.1,717.4 1298.1,704.4 "/>
<!-- <path fill="#782c19" d="M1509,464.9V320c0-12.4-10.1-22.5-22.5-22.5H426v5h1060.5c9.6,0,17.5,7.9,17.5,17.5v144.9h-10.5l13,13l13-13
	H1509z"/> -->
<!-- <path fill="#782c19" d="M1723.1,630.7v19.6c0,9.6-7.9,17.5-17.5,17.5h-346.2c-12.4,0-22.5,10.1-22.5,22.5v14.1h-10.5l13,13l13-13
	h-10.5v-14.1c0-9.6,7.9-17.5,17.5-17.5h346.2c12.4,0,22.5-10.1,22.5-22.5v-19.6H1723.1z"/>
<path fill="#782c19" d="M1728.1,463.7V283.8c0-12.4-10.1-22.5-22.5-22.5H426v5h1279.6c9.6,0,17.5,7.9,17.5,17.5v179.9h-10.5l13,13
	l13-13L1728.1,463.7L1728.1,463.7z"/>
<path fill="#782c19" d="M1504.1,630.7v8c0,9.6-7.9,17.5-17.5,17.5h-154.3c-12.4,0-22.5,10.1-22.5,22.5v25.7h-10.5l13,13l13-13h-10.5
	v-25.7c0-9.6,7.9-17.5,17.5-17.5h154.3c12.4,0,22.5-10.1,22.5-22.5v-8H1504.1z"/> -->
<!-- <polygon fill="#782c19" points="1234.3,940.8 1234.3,869.9 1229.3,869.9 1229.3,940.8 1218.8,940.8 1231.8,953.8 1244.8,940.8 "/>
<polygon fill="#782c19" points="1260.6,940.8 1260.6,869.9 1255.6,869.9 1255.6,940.8 1245.1,940.8 1258.1,953.8 1271.1,940.8 "/> -->
<polygon fill="#626c78" points="1287.6,940.8 1287.6,869.9 1282.6,869.9 1282.6,940.8 1272.1,940.8 1285.1,953.8 1298.1,940.8 "/>
<!-- <polygon fill="#782c19" points="1314.8,940.8 1314.8,869.9 1309.8,869.9 1309.8,940.8 1299.3,940.8 1312.3,953.8 1325.3,940.8 "/>
<polygon fill="#782c19" points="1341.8,940.8 1341.8,869.9 1336.8,869.9 1336.8,940.8 1326.3,940.8 1339.3,953.8 1352.3,940.8 "/> -->
<g>
	<text transform="matrix(1 0 0 1 1438.3468 849.2768)" fill="#2B3990" font-family='Poppins-Extra-Bold' font-size="18">Payment Portal</text>
</g>
<g>
	<text transform="matrix(1 0 0 1 984.6744 1090.952)" fill="#2E3192" font-family='Poppins-Extra-Bold' font-size="18">Credit/Debit Card</text>
</g>
<g>
	<text transform="matrix(1 0 0 1 1269.7057 1090.952)" fill="#2E3192" font-family='Poppins-Extra-Bold' font-size="18">P2P</text>
</g>
<g>
	<text transform="matrix(1 0 0 1 1486.816 1090.952)" fill="#2E3192" font-family='Poppins-Extra-Bold' font-size="18">ACH</text>
</g>
<g>
	<!-- <path fill="#334B5E" d="M861,589.4h-57.7c-0.7,0-1.3-0.6-1.3-1.3v-97.4c0-0.7,0.6-1.3,1.3-1.3H861c0.7,0,1.3,0.6,1.3,1.3v97.4
		C862.3,588.9,861.8,589.4,861,589.4z"/>
	<rect x="807.7" y="502.9" fill="#8BD7F8" width="48.9" height="71.9"/> -->
	<g>
		<!-- <circle fill="#ADB3BA" cx="832.2" cy="581.7" r="4.4"/> -->
		<!-- <path fill="#ADB3BA" d="M839.8,499.6h-15.2c-0.1,0-0.3-0.1-0.3-0.3v-1.5c0-0.1,0.1-0.3,0.3-0.3h15.2c0.1,0,0.3,0.1,0.3,0.3v1.5
			C840,499.5,839.9,499.6,839.8,499.6z"/>
		<circle fill="#ADB3BA" cx="832.2" cy="494.4" r="1.5"/> -->
	</g>
	<path fill="#a9a9a9" d="M885.2,511h-54.3c-1.9,0-3.4,1.5-3.4,3.4v31c0,1.9,1.5,3.4,3.4,3.4h3.5v10.3l10.3-10.3h40.5
		c1.9,0,3.4-1.5,3.4-3.4v-31C888.6,512.5,887.1,511,885.2,511z"/>
	<g>
		<path fill="#1ff235" d="M840.6,526.2c-0.3,0.2-0.4,0.6-0.4,1s0.2,0.7,0.6,1c0.4,0.2,1.2,0.5,2.6,0.9c1.3,0.3,2.4,0.8,3.2,1.5
			s1.1,1.6,1.1,2.9s-0.5,2.3-1.4,3.1c-1,0.8-2.2,1.2-3.8,1.2c-2.3,0-4.3-0.8-6.1-2.5l1.9-2.3c1.5,1.3,2.9,2,4.3,2
			c0.6,0,1-0.1,1.4-0.4c0.3-0.2,0.5-0.6,0.5-1s-0.2-0.8-0.5-1c-0.4-0.2-1-0.5-2.1-0.8c-1.7-0.4-2.9-0.9-3.6-1.5
			c-0.8-0.6-1.2-1.6-1.2-3c0-1.3,0.5-2.4,1.5-3.1c1-0.7,2.2-1.1,3.6-1.1c1,0,1.9,0.1,2.9,0.5c1,0.3,1.8,0.8,2.5,1.4l-1.6,2.3
			c-1.2-0.9-2.5-1.4-3.8-1.4C841.3,525.8,840.8,525.9,840.6,526.2z"/>
		<path fill="#1ff235" d="M863,528.6l-3.8,7.8h-1.9l-3.8-7.8v9h-3.2v-14.2h4.3l3.7,7.8l3.7-7.8h4.3v14.2H863V528.6L863,528.6z"/>
		<path fill="#1ff235" d="M873,526.2c-0.3,0.2-0.4,0.6-0.4,1s0.2,0.7,0.6,1c0.4,0.2,1.3,0.5,2.6,0.9s2.4,0.8,3.2,1.5
			s1.1,1.6,1.1,2.9s-0.5,2.3-1.4,3.1c-1,0.8-2.2,1.2-3.8,1.2c-2.3,0-4.3-0.8-6.1-2.5l1.9-2.3c1.5,1.3,2.9,2,4.3,2
			c0.6,0,1-0.1,1.4-0.4c0.3-0.2,0.5-0.6,0.5-1s-0.2-0.8-0.5-1c-0.4-0.2-1-0.5-2.1-0.8c-1.7-0.4-2.9-0.9-3.6-1.5
			c-0.8-0.6-1.2-1.6-1.2-3c0-1.3,0.5-2.4,1.5-3.1c1-0.7,2.2-1.1,3.6-1.1c1,0,1.9,0.1,2.9,0.5c1,0.3,1.8,0.8,2.5,1.4l-1.6,2.3
			c-1.3-0.9-2.5-1.4-3.8-1.4C873.7,525.8,873.3,525.9,873,526.2z"/>
	</g>
</g>
<svg width="100%" height="1" viewBox="-100 -100 200 200" version="1.1"
     xmlns="http://www.w3.org/2000/svg"
     xmlns:xlink="http://www.w3.org/1999/xlink">
  <image x="10" y="20" width="80" height="80" xlink:href="/Users/mauriciopichardo/Documents/GitHub/Receive_Code/ SVG/Physical_mail.svg" />
</svg>
<g>
	<path fill="#FFD15D" d="M1335,585.3c0,1.2-0.4,2.3-1.2,3.1c-0.8,0.6-1.7,1-2.9,1h-91.6c-1,0-2.1-0.4-2.9-1
		c-0.8-0.8-1.2-1.9-1.2-3.1v-61h99.9v61H1335z"/>
	<path fill="#F7B64C" d="M1333.7,588.4c-0.8,0.6-1.7,1-2.9,1h-91.6c-1,0-2.1-0.4-2.9-1l48.7-41.8L1333.7,588.4z"/>
	<path fill="#425A6C" d="M1335,524.3l-14.2,10.2l-33.1,23.7c-1.7,1.2-4,1.2-5.6,0l-32.9-23.7l-14.2-10.2l14.2-10.2L1280,492l2.3-1.7
		c1.7-1.2,4-1.2,5.6,0l2.3,1.7l14.8,10.6l7.3,5.2l8.5,6.2L1335,524.3z"/>
	<path fill="#F3F3F3" d="M1320.8,504.9v29.6l-33.1,23.7c-1.7,1.2-4,1.2-5.6,0l-32.9-23.7v-38.3c0-2.3,1.9-4.2,4.2-4.2h54.3
		L1320.8,504.9z"/>
	<path fill="#CED6E0" d="M1307.9,501.6c0,1.9,1.5,3.3,3.3,3.3h9.6l-12.9-12.9V501.6L1307.9,501.6z"/>
	<path fill="#F3715B" d="M1297.3,533.9h3.3c-1,2.3-2.7,4-5,5.2c-2.5,1.5-5.6,2.1-9.4,2.1c-3.5,0-6.7-0.6-9.2-1.9
		c-2.5-1.3-4.6-2.9-5.8-5.4c-1.2-2.3-1.9-5-1.9-7.7c0-3.1,0.6-5.8,2.1-8.5s3.3-4.6,5.8-5.8s5.4-1.9,8.5-1.9c2.7,0,5.2,0.6,7.3,1.7
		c2.1,1,3.7,2.5,4.8,4.6c1,1.9,1.7,4.2,1.7,6.5c0,2.7-0.8,5.2-2.5,7.5c-2.1,2.9-4.8,4.2-8.1,4.2c-0.8,0-1.7-0.2-2.1-0.4
		c-0.4-0.4-0.8-0.8-0.8-1.5c-1.2,1.2-2.7,1.9-4.4,1.9c-1.9,0-3.3-0.6-4.4-1.9c-1.2-1.2-1.9-2.9-1.9-5c0-2.5,0.6-4.8,2.1-7.1
		c1.7-2.5,4-3.7,6.7-3.7c1.9,0,3.3,0.8,4.4,2.3l0.4-1.9h4.4l-2.5,11.7c-0.2,0.8-0.2,1.2-0.2,1.5c0,0.2,0,0.4,0.2,0.6
		s0.2,0.2,0.4,0.2c0.4,0,1.2-0.4,2.1-1c1-0.8,2.1-1.9,2.7-3.3s1-2.9,1-4.4c0-2.7-1-5-2.9-6.7c-1.9-1.9-4.6-2.7-8.1-2.7
		c-2.9,0-5.4,0.6-7.5,1.9s-3.5,2.9-4.6,5c-1,2.1-1.5,4.4-1.5,6.9c0,2.3,0.6,4.4,1.7,6.2c1.2,1.9,2.7,3.3,4.8,4.2s4.4,1.2,7.1,1.2
		c2.5,0,4.8-0.4,6.7-1C1294.6,536.4,1296.1,535.3,1297.3,533.9z M1279.6,527.2c0,1.5,0.2,2.3,0.8,3.1c0.6,0.6,1.2,1,2.1,1
		c0.6,0,1.2-0.2,1.7-0.4c0.4-0.2,0.8-0.6,1.2-1c0.6-0.6,1-1.7,1.5-2.9c0.4-1.2,0.6-2.5,0.6-3.5c0-1.2-0.2-2.1-0.8-2.9
		c-0.6-0.6-1.2-1-2.1-1c-0.8,0-1.9,0.4-2.5,1c-0.8,0.6-1.5,1.7-1.9,3.1C1279.8,524.9,1279.6,526.2,1279.6,527.2z"/>
</g>
<g>
	<path fill="#FFFFFF" d="M1523.9,578.8c0.2,5-3.2,10.4-10.2,10.6c-8.6,0.2-19.5-13.7-27.1-19.9c-2.5-2-6.9-1.5-9.2,1.1l-1.7-1.4
		c3.7-4,8.7-4.5,13.1-1.3c6.7,5.5,18.5,19.3,25.1,19.2c5.3-0.2,7.6-5.1,7.2-8.3C1522.1,578.8,1523,578.9,1523.9,578.8L1523.9,578.8z
		"/>
	<path fill="#334B5E" d="M1487,512.3c-5.6,3.8-9.2,9.3-8.9,15.8c0.9,20.6,26.4,50.5,46.1,51.4c4.8,0.2,9.5-2.4,13.2-6
		c4.6-2.2-13.3-20.5-16.7-19c-2.8,1.6-5.3,4.1-7.1,6.7c-4.7-3.3-16.9-18.2-19.2-23.3c2.9-1.3,5.8-3.2,8-5.7
		C1504.6,529.3,1490,508.3,1487,512.3L1487,512.3L1487,512.3L1487,512.3z"/>
	<g>
		<path fill="#FFFFFF" d="M1519.3,525.5c0.2-0.6,0.4-1.2,0.6-1.8c1.3-5.3,0.5-10.7-2.4-15.1s-7.4-7.5-12.7-8.5
			c-0.6-0.1-1.3-0.2-1.9-0.3l0.7-3.6c0.7,0.1,1.4,0.2,2.1,0.3c6.3,1.2,11.7,4.8,15,10c3.4,5.3,4.4,11.6,2.8,17.9
			c-0.2,0.7-0.4,1.3-0.6,2L1519.3,525.5L1519.3,525.5z"/>
		<path fill="#FFFFFF" d="M1513.3,524.1c0.1-0.4,0.3-0.8,0.4-1.3c0.9-3.8,0.3-7.6-1.7-10.8s-5.3-5.3-9.1-6.1
			c-0.4-0.1-0.8-0.1-1.3-0.2l0.7-3.6c0.5,0.1,1,0.1,1.5,0.2c4.8,0.9,8.8,3.6,11.4,7.6c2.5,4,3.3,8.8,2.1,13.5
			c-0.1,0.5-0.3,0.9-0.4,1.4L1513.3,524.1L1513.3,524.1L1513.3,524.1z"/>
		<path fill="#FFFFFF" d="M1507.5,522.7l0.1-0.2c0.6-2.4,0.2-4.9-1.1-6.9c-1.3-2-3.4-3.4-5.8-3.9h-0.2l0.7-3.6l0.4,0.1
			c3.4,0.6,6.3,2.6,8.1,5.4c1.8,2.8,2.4,6.3,1.5,9.7l-0.1,0.3L1507.5,522.7L1507.5,522.7z"/>
		<path fill="#FFFFFF" d="M1501.6,521.4c0-0.8-0.3-1.5-0.7-2.2c-0.4-0.7-1-1.2-1.7-1.6l0.8-3.7c1.7,0.6,3.2,1.7,4.1,3.2
			c1,1.5,1.4,3.3,1.2,5.1L1501.6,521.4L1501.6,521.4z"/>
		<path fill="#FFFFFF" d="M1526.1,527.1c0.2-0.6,0.4-1.2,0.5-1.8c1.8-7.2,0.6-14.5-3.2-20.5c-3.9-6-10-10.2-17.3-11.5
			c-0.6-0.1-1.2-0.2-1.8-0.3l0.7-3.6c0.7,0.1,1.3,0.2,2,0.3c8.2,1.6,15.2,6.2,19.6,13.1c4.4,6.8,5.7,15.2,3.7,23.2
			c-0.2,0.6-0.4,1.3-0.6,2L1526.1,527.1L1526.1,527.1z"/>
	</g>
</g>
<g>
	<g>
		<!-- <polygon fill="#334B5E" points="1730.7,489.4 1665.2,489.4 1665.2,538.6 1695.7,538.6 1689.9,552.3 1713.8,538.6 1730.7,538.6
			"/> -->
		<g>
			<path fill="#FFFFFF" d="M1691.9,514c0,2-1.6,3.6-3.6,3.6s-3.6-1.6-3.6-3.6s1.6-3.6,3.6-3.6S1691.9,512,1691.9,514z"/>
			<path fill="#FFFFFF" d="M1701.6,514c0,2-1.6,3.6-3.6,3.6s-3.6-1.6-3.6-3.6s1.6-3.6,3.6-3.6S1701.6,512,1701.6,514z"/>
			<path fill="#FFFFFF" d="M1711.2,514c0,2-1.6,3.6-3.6,3.6s-3.6-1.6-3.6-3.6s1.6-3.6,3.6-3.6S1711.2,512,1711.2,514z"/>
		</g>
	</g>
	<g>
		<path fill="#1ff235" d="M1754.6,575.8h30.5c0-4.9,0-10,0-15.5v-33.7h-65.5v49.2h16.9l23.8,13.6L1754.6,575.8z"/>
		<g>
			<path fill="#3E4259" d="M1765.6,551.2c0,2-1.6,3.6-3.6,3.6s-3.6-1.6-3.6-3.6s1.6-3.6,3.6-3.6S1765.6,549.2,1765.6,551.2z"/>
			<path fill="#3E4259" d="M1756,551.2c0,2-1.6,3.6-3.6,3.6s-3.6-1.6-3.6-3.6s1.6-3.6,3.6-3.6S1756,549.2,1756,551.2z"/>
			<path fill="#3E4259" d="M1746.4,551.2c0,2-1.6,3.6-3.6,3.6s-3.6-1.6-3.6-3.6s1.6-3.6,3.6-3.6
				C1744.7,547.6,1746.4,549.2,1746.4,551.2z"/>
		</g>
	</g>
</g>
<g>
	<path fill="#5DB7E7" d="M1058.7,824.3h-15.8c1-2.7-0.4-5.7-3.1-6.6c-2.7-1-5.7,0.4-6.6,3.1c-0.2,0.6-0.3,1.2-0.3,1.8
		c0,0.5,0.1,1,0.2,1.5c-2.2-0.7-3.7-2.7-3.7-4.9V814c0-1-0.8-1.7-1.7-1.7c-1,0-1.7,0.8-1.7,1.7v5.2c0,4.8,3.9,8.6,8.6,8.6h24.1
		c1,0,1.7-0.8,1.7-1.7S1059.6,824.3,1058.7,824.3z M1038,820.9c1,0,1.7,0.8,1.7,1.7s-0.8,1.7-1.7,1.7c-1,0-1.7-0.8-1.7-1.7
		S1037,820.9,1038,820.9z"/>
	<path fill="#F8E104" d="M1038,773.8v-4c0-2.2-1.8-4-4-4h-4c-8.9,0-16.1,7.2-16.1,16.1l0,0V798c0,8.9,7.2,16.1,16.1,16.1h4
		c2.2,0,4-1.8,4-4l0,0v-4c0-2.2-1.8-4-4-4h-4c-2.2,0-4-1.8-4-4l0,0V782c0-2.2,1.8-4,4-4h4C1036.2,777.8,1038,776,1038,773.8
		L1038,773.8z"/>
	<path fill="#5DB7E7" d="M1058.7,769.2h55.2v37.9h-55.2V769.2z"/>
	<g>
		<path fill="#666C77" d="M1058.7,769.2h55.2v37.9h-55.2V769.2z"/>
		<path fill="#5DB7E7" d="M1062.2,771.6h48.1v33h-48.1V771.6z"/>
	</g>
	<path fill="#949A9B" d="M1058.7,807.1h55.2v20.7h-55.2V807.1z"/>
	<g>
		<path fill="#D1D8DA" d="M1060.4,814h5.2l0,0v5.2l0,0C1062.7,819.2,1060.4,816.8,1060.4,814L1060.4,814z"/>
		<path fill="#D1D8DA" d="M1060.4,820.9h5.2l0,0v5.2l0,0C1062.7,826.1,1060.4,823.7,1060.4,820.9L1060.4,820.9z"/>
		<path fill="#D1D8DA" d="M1060.4,807.1h5.2l0,0v5.2l0,0C1062.7,812.3,1060.4,810,1060.4,807.1L1060.4,807.1z"/>
		<path fill="#D1D8DA" d="M1067.3,814h5.2l0,0v5.2l0,0C1069.6,819.2,1067.3,816.8,1067.3,814L1067.3,814z"/>
		<path fill="#D1D8DA" d="M1067.3,820.9h5.2l0,0v5.2l0,0C1069.6,826.1,1067.3,823.7,1067.3,820.9L1067.3,820.9z"/>
		<path fill="#D1D8DA" d="M1067.3,807.1h5.2l0,0v5.2l0,0C1069.6,812.3,1067.3,810,1067.3,807.1L1067.3,807.1z"/>
		<path fill="#D1D8DA" d="M1074.2,820.9h25.9l0,0v5.2l0,0h-20.7C1076.5,826.1,1074.2,823.7,1074.2,820.9L1074.2,820.9z"/>
		<path fill="#D1D8DA" d="M1074.2,814h5.2l0,0v5.2l0,0C1076.5,819.2,1074.2,816.8,1074.2,814L1074.2,814z"/>
		<path fill="#D1D8DA" d="M1074.2,807.1h5.2l0,0v5.2l0,0C1076.5,812.3,1074.2,810,1074.2,807.1L1074.2,807.1z"/>
		<path fill="#D1D8DA" d="M1081.1,814h5.2l0,0v5.2l0,0C1083.4,819.2,1081.1,816.8,1081.1,814L1081.1,814z"/>
		<path fill="#D1D8DA" d="M1081.1,807.1h5.2l0,0v5.2l0,0C1083.4,812.3,1081.1,810,1081.1,807.1L1081.1,807.1z"/>
		<path fill="#D1D8DA" d="M1088,814h5.2l0,0v5.2l0,0C1090.3,819.2,1088,816.8,1088,814L1088,814z"/>
		<path fill="#D1D8DA" d="M1088,807.1h5.2l0,0v5.2l0,0C1090.3,812.3,1088,810,1088,807.1L1088,807.1z"/>
		<path fill="#D1D8DA" d="M1094.9,814h5.2l0,0v5.2l0,0C1097.2,819.2,1094.9,816.8,1094.9,814L1094.9,814z"/>
		<path fill="#D1D8DA" d="M1094.9,807.1h5.2l0,0v5.2l0,0C1097.2,812.3,1094.9,810,1094.9,807.1L1094.9,807.1z"/>
		<path fill="#D1D8DA" d="M1101.8,814h5.2l0,0v5.2l0,0C1104.1,819.2,1101.8,816.8,1101.8,814L1101.8,814z"/>
		<path fill="#D1D8DA" d="M1101.8,820.9h5.2l0,0v5.2l0,0C1104.1,826.1,1101.8,823.7,1101.8,820.9L1101.8,820.9z"/>
		<path fill="#D1D8DA" d="M1101.8,807.1h5.2l0,0v5.2l0,0C1104.1,812.3,1101.8,810,1101.8,807.1L1101.8,807.1z"/>
		<path fill="#D1D8DA" d="M1108.7,814h5.2l0,0v5.2l0,0C1111,819.2,1108.7,816.8,1108.7,814L1108.7,814z"/>
		<path fill="#D1D8DA" d="M1108.7,820.9h5.2l0,0v5.2l0,0C1111,826.1,1108.7,823.7,1108.7,820.9L1108.7,820.9z"/>
		<path fill="#D1D8DA" d="M1108.7,807.1h5.2l0,0v5.2l0,0C1111,812.3,1108.7,810,1108.7,807.1L1108.7,807.1z"/>
	</g>
	<path fill="#FABC15" d="M1092,779.6c-0.9-0.3-1.9,0.1-2.2,1l0,0l-3.6,9.5l-3.6-9.5c-0.3-0.9-1.3-1.4-2.2-1c-0.9,0.3-1.4,1.3-1,2.2
		l5.2,13.8c0.3,0.9,1.3,1.4,2.2,1c0.5-0.2,0.9-0.6,1-1l5.2-13.8C1093.4,780.9,1092.9,780,1092,779.6L1092,779.6L1092,779.6z"/>
	<path fill="#FABC15" d="M1106.9,784.7c0-2.9-2.3-5.2-5.2-5.2h-3.4c-1,0-1.7,0.8-1.7,1.7V795c0,1,0.8,1.7,1.7,1.7
		c1,0,1.7-0.8,1.7-1.7v-5.2h1.7c1,0,1.7,0.8,1.7,1.7v3.4c0,1,0.8,1.7,1.7,1.7c1,0,1.7-0.8,1.7-1.7v-3.4c0-1.3-0.5-2.5-1.3-3.4
		C1106.4,787.2,1106.9,786,1106.9,784.7z M1100,786.4V783h1.7c1,0,1.7,0.8,1.7,1.7s-0.8,1.7-1.7,1.7H1100z"/>
	<path fill="#FABC15" d="M1074.2,783c1,0,1.7-0.8,1.7-1.7s-0.8-1.7-1.7-1.7h-6.9c-1,0-1.7,0.8-1.7,1.7s0.8,1.7,1.7,1.7h1.7v10.3
		h-1.7c-1,0-1.7,0.8-1.7,1.7s0.8,1.7,1.7,1.7h6.9c1,0,1.7-0.8,1.7-1.7s-0.8-1.7-1.7-1.7h-1.7V783H1074.2z"/>
	<path fill="#FABC15" d="M1084.7,795.8c0.3,0.6,0.9,1,1.6,1c0.2,0,0.4,0,0.6-0.1C1086.1,796.4,1085.4,796.1,1084.7,795.8z"/>
	<path fill="#666C77" d="M1113.8,814v-1.7h-5.2v-5.2h-1.7v5.2h-5.2v-5.2h-1.7v5.2h-5.2v-5.2h-1.7v5.2h-5.2v-5.2h-1.7v5.2h-5.2v-5.2
		h-1.7v5.2h-5.2v-5.2h-1.7v5.2h-5.2v-5.2h-1.7v5.2h-6.9v1.7h6.9v5.2h-6.9v1.7h6.9v6.9h1.7v-6.9h5.2v6.9h1.7v-6.9h25.9v6.9h1.7v-6.9
		h5.2v6.9h1.7v-6.9h5.2v-1.7h-5.2V814H1113.8z M1067.3,819.2V814h5.2v5.2H1067.3z M1074.2,819.2V814h5.2v5.2H1074.2z M1081.1,819.2
		V814h5.2v5.2H1081.1z M1088,819.2V814h5.2v5.2H1088z M1094.9,819.2V814h5.2v5.2H1094.9z M1106.9,819.2h-5.2V814h5.2V819.2z"/>
	<path fill="#8DC63F" d="M1081.1,727.8h-34.5c-1.9,0-3.4,1.5-3.4,3.4v24.1c0,1.9,1.5,3.4,3.4,3.4h18.4l5.7,15.5l6.1-15.5h4.2
		c1.9,0,3.4-1.5,3.4-3.4v-24.1C1084.5,729.3,1083,727.8,1081.1,727.8z"/>
	<path fill="#FABC15" d="M1072.4,739.9h-5.2v-5.2h-6.9v5.2h-5.2v6.9h5.2v5.2h6.9v-5.2h5.2V739.9z"/>
	<path fill="#FABC15" d="M1037.4,808.8h-4c-8.9,0-16.1-7.2-16.1-16.1l0,0v-16.1c0-2.1,0.4-4.2,1.2-6.2c-3,3-4.7,7.1-4.7,11.3v16.1
		c0,8.9,7.2,16.1,16.1,16.1l0,0h4c2.2,0,4-1.8,4-4l0,0v-1.2h-0.5V808.8z"/>
	<path fill="#5DB7E7" d="M1040.6,798.5c0.3,0.3,0.8,0.5,1.2,0.5c0.5,0,1-0.2,1.3-0.5c4.7-4.7,4.7-12.4,0-17.1l0,0
		c-0.6-0.7-1.7-0.8-2.4-0.2c-0.7,0.6-0.8,1.7-0.2,2.4c0.1,0.1,0.1,0.1,0.2,0.2c3.4,3.4,3.4,8.8,0,12.2l0,0
		C1040,796.7,1040,797.8,1040.6,798.5L1040.6,798.5z"/>
	<path fill="#5DB7E7" d="M1035.7,793.5c0.7,0.7,1.8,0.7,2.4,0c2-2,2-5.3,0-7.3c-0.6-0.7-1.7-0.8-2.4-0.2c-0.7,0.6-0.8,1.7-0.2,2.4
		c0.1,0.1,0.1,0.1,0.2,0.2c0.7,0.7,0.7,1.8,0,2.4l0,0C1035.1,791.8,1035.1,792.8,1035.7,793.5L1035.7,793.5z"/>
	<path fill="#5DB7E7" d="M1045.5,800.8c-0.7,0.7-0.7,1.8,0,2.4l0,0c0.3,0.3,0.8,0.5,1.2,0.5c0.5,0,0.9-0.2,1.2-0.5
		c7.4-7.4,7.4-19.4,0-26.8l0,0c-0.7-0.7-1.8-0.7-2.4,0s-0.7,1.8,0,2.4l0,0C1051.5,784.9,1051.5,794.8,1045.5,800.8L1045.5,800.8z"/>
</g>
<g>
	<path fill="#CDCCCC" d="M1486.9,815.5l5.9-41.4c0.2-1.7,1.7-3,3.4-3h56.8c1.9,0,3.4,1.5,3.4,3.4c0,0.2,0,0.3,0,0.5l-5.9,41.4
		c-0.2,1.7-1.7,3-3.4,3h-56.8c-1.9,0-3.4-1.5-3.4-3.4C1486.9,815.8,1486.9,815.6,1486.9,815.5L1486.9,815.5z"/>
	<path fill="#74D0F3" d="M1491,813.7l5.7-37.5c0.2-1.5,1.6-2.7,3.3-2.7h48.9c1.8,0,3.3,1.4,3.3,3.1c0,0.1,0,0.3,0,0.4l-5.7,37.5
		c-0.2,1.5-1.6,2.7-3.3,2.7h-48.9c-1.8,0-3.3-1.4-3.3-3.1C1491,814,1491,813.8,1491,813.7L1491,813.7z"/>
	<path fill="#CDCCCC" d="M1460.5,819.4h43.1c1.9,0,3.4,1.5,3.4,3.4l0,0c0,1.9-1.5,3.4-3.4,3.4h-43.1c-1.9,0-3.4-1.5-3.4-3.4l0,0
		C1457.1,820.9,1458.6,819.4,1460.5,819.4z"/>
	<path fill="#B4B4B4" d="M1503.6,819.4h43.1c1.9,0,3.4,1.5,3.4,3.4l0,0c0,1.9-1.5,3.4-3.4,3.4h-43.1c-1.9,0-3.4-1.5-3.4-3.4l0,0
		C1500.2,820.9,1501.7,819.4,1503.6,819.4z"/>
	<path fill="#5CA0D7" d="M1508.8,812.5l3.4-27.6h27.6l-3.4,27.6H1508.8z"/>
	<path fill="#3D7ABE" d="M1517.4,790.1h15.5v3.4h-15.5V790.1z"/>
	<path fill="#3D7ABE" d="M1515.7,797h10.3v3.4h-10.3V797z"/>
	<path fill="#3D7ABE" d="M1529.5,797h3.4v3.4h-3.4V797z"/>
	<path fill="#3D7ABE" d="M1515.7,803.9h3.4v3.4h-3.4V803.9z"/>
	<path fill="#3D7ABE" d="M1524.3,803.9h6.9v3.4h-6.9V803.9z"/>
	<path fill="#9FCC3B" d="M1524.3,778h-20.7v12.1l-12.1-12.1H1457v-51.7h67.2L1524.3,778L1524.3,778z"/>
	<path fill="#5CA0D7" d="M1464,771.1v-37.9h53.4v37.9H1464z"/>
	<path fill="#F1E368" d="M1470.9,750.4v-10.3h13.8v10.3H1470.9z"/>
	<g>
		<path fill="#3D7ABE" d="M1469.1,755.6h3.4v3.4h-3.4V755.6z"/>
		<path fill="#3D7ABE" d="M1476,755.6h3.4v3.4h-3.4V755.6z"/>
		<path fill="#3D7ABE" d="M1482.9,755.6h3.4v3.4h-3.4V755.6z"/>
		<path fill="#3D7ABE" d="M1469.1,762.5h10.3v3.4h-10.3V762.5z"/>
		<path fill="#3D7ABE" d="M1482.9,762.5h6.9v3.4h-6.9V762.5z"/>
		<path fill="#3D7ABE" d="M1489.8,755.6h3.4v3.4h-3.4V755.6z"/>
	</g>
	<circle fill="#FFCC78" cx="1507.1" cy="760.8" r="3.4"/>
	<circle fill="#EB3731" cx="1501.9" cy="760.8" r="3.4"/>
</g>
<g id="surface1">
	<path fill="#FBB682" d="M1108.5,994.4l-18-18.1v72.4h24.1V1009C1114.6,1003.5,1112.4,998.3,1108.5,994.4z"/>
	<path fill="#DE4C3C" d="M1028.7,1035.5l-13.6-35.4c-1.4-3.6,0.4-7.5,4-8.9l64.4-24.8c3.6-1.4,7.5,0.4,8.9,4l13.6,35.4
		c1.4,3.6-0.4,7.5-4,8.9l-64.4,24.8C1034,1040.9,1030.1,1039.1,1028.7,1035.5z"/>
	<path fill="#7B4A31" d="M1097.2,983.1L1020,1013l5.1,13.3l77.2-29.9L1097.2,983.1z"/>
	<path fill="#4498D2" d="M1014.6,1010.8v-37.9c0-3.8,3.1-6.9,6.9-6.9h69c3.8,0,6.9,3.1,6.9,6.9v37.9c0,3.8-3.1,6.9-6.9,6.9h-69
		C1017.7,1017.7,1014.6,1014.6,1014.6,1010.8z"/>
	<path fill="#3F8DC8" d="M1090.4,966h-7.3l-51.7,51.7h59.1c3.8,0,6.9-3.1,6.9-6.9v-37.9C1097.3,969,1094.3,966,1090.4,966z"/>
	<path fill="#5FB3D1" d="M1021.5,993.5h6.9v3.4h-6.9V993.5z"/>
	<path fill="#5FB3D1" d="M1021.5,1003.9h6.9v3.4h-6.9V1003.9z"/>
	<path fill="#5FB3D1" d="M1052.5,1003.9h6.9v3.4h-6.9V1003.9z"/>
	<path fill="#5FB3D1" d="M1031.8,993.5h6.9v3.4h-6.9V993.5z"/>
	<path fill="#5FB3D1" d="M1042.2,993.5h6.9v3.4h-6.9V993.5z"/>
	<path fill="#5FB3D1" d="M1052.5,993.5h6.9v3.4h-6.9V993.5z"/>
	<path fill="#5FB3D1" d="M1085.3,972.9h3.4v5.2h-3.4V972.9z"/>
	<path fill="#5FB3D1" d="M1078.4,972.9h3.4v5.2h-3.4V972.9z"/>
	<path fill="#5FB3D1" d="M1071.5,972.9h3.4v5.2h-3.4V972.9z"/>
	<path fill="#5FB3D1" d="M1064.6,972.9h3.4v5.2h-3.4V972.9z"/>
	<path fill="#89B440" d="M1083.6,1048.7h31v17.3h-31V1048.7z"/>
	<path fill="#FBB682" d="M1078.5,997.1c-2.9-2.9-7.7-2.9-10.6,0c-2.8,2.8-2.9,7.4-0.2,10.3l14.1,15.4c-4.2,7.4-4.1,16.6,0.5,23.9
		l1.3,2h22.4v-24.1L1078.5,997.1z"/>
	<path fill="#6B973F" d="M1088.7,1053.9h3.4v3.4h-3.4V1053.9z"/>
	<path fill="#FDB62D" d="M1021.5,983.9v-8.3c0-1.5,1.2-2.8,2.8-2.8h8.3c1.5,0,2.8,1.2,2.8,2.8v8.3c0,1.5-1.2,2.8-2.8,2.8h-8.3
		C1022.7,986.7,1021.5,985.4,1021.5,983.9z"/>
	<path fill="#F47B33" d="M1021.5,978h5.2v3.4h-5.2L1021.5,978L1021.5,978z"/>
	<path fill="#F47B33" d="M1030.1,978h5.2v3.4h-5.2V978z"/>
	<path fill="#F2A570" d="M1104.2,1024.6c-0.5,0-0.9-0.2-1.2-0.5l-6.9-6.9c-0.7-0.7-0.6-1.8,0-2.4c0.7-0.6,1.7-0.6,2.4,0l6.9,6.9
		c0.7,0.7,0.7,1.8,0,2.4C1105.1,1024.4,1104.7,1024.6,1104.2,1024.6z"/>
</g>
<g>
	<line fill="none" stroke="#808285" stroke-width="5" stroke-miterlimit="10" x1="1256.1" y1="984.5" x2="1283.9" y2="1004.1"/>
	<line fill="none" stroke="#808285" stroke-width="5" stroke-miterlimit="10" x1="1311.6" y1="984.7" x2="1283.9" y2="1004.1"/>
	<line fill="none" stroke="#808285" stroke-width="5" stroke-miterlimit="10" x1="1284.1" y1="1034" x2="1284.1" y2="1011.6"/>
	<g>
		<circle fill="#00A79D" cx="1284.1" cy="1004.3" r="16.1"/>
		<path fill="#FFFFFF" d="M1290,1006.1c-0.6-0.8-1.3-1.3-2.1-1.7c-0.8-0.4-2-0.8-3.4-1.2v-7c0.9,0.2,1.7,0.5,2.2,1.1s0.9,1.2,1,1.9
			h2.8c-0.2-1.3-0.8-2.5-1.8-3.4s-2.4-1.5-4.2-1.6v-2.5h-0.9v2.4c-1.3,0-2.4,0.2-3.4,0.7c-1,0.4-1.7,1.1-2.2,1.8
			c-0.5,0.8-0.8,1.7-0.8,2.8c0,1.3,0.3,2.3,0.9,3c0.6,0.8,1.3,1.3,2.1,1.7c0.8,0.4,1.9,0.7,3.4,1.2v7.3c-1.1-0.2-1.9-0.6-2.5-1.3
			s-1-1.4-1-2.2h-2.8c0.1,1.5,0.8,2.8,1.9,3.8s2.6,1.6,4.4,1.8v2.3h0.9v-2.3h0.1c1.4,0,2.6-0.3,3.5-0.8c1-0.5,1.7-1.2,2.1-2
			c0.5-0.8,0.7-1.7,0.7-2.6C1291,1007.9,1290.7,1006.9,1290,1006.1z M1283.6,1002.9c-1.2-0.4-2.1-0.9-2.7-1.4s-0.9-1.3-0.9-2.2
			c0-1,0.3-1.8,1-2.3s1.5-0.8,2.6-0.8V1002.9z M1287.2,1011.6c-0.6,0.6-1.6,0.9-2.7,0.9l0,0v-7c1.2,0.4,2.1,0.8,2.8,1.4
			c0.6,0.5,1,1.3,1,2.3C1288.2,1010.2,1287.9,1011,1287.2,1011.6z"/>
	</g>
	<g>
		<circle fill="#8DC63F" cx="1322.2" cy="978.4" r="12.4"/>
		<g>
			<circle fill="#FFFFFF" cx="1322.2" cy="973.3" r="3.3"/>
			<path fill="#FFFFFF" d="M1329,983.9c0,3.7-13.5,3.7-13.5,0s3-6.7,6.7-6.7S1329,980.2,1329,983.9z"/>
		</g>
	</g>
	<g>
		<circle fill="#1C75BC" cx="1245.8" cy="978.4" r="12.4"/>
		<g>
			<circle fill="#FFFFFF" cx="1245.8" cy="973.3" r="3.3"/>
			<path fill="#FFFFFF" d="M1252.5,983.9c0,3.7-13.5,3.7-13.5,0s3-6.7,6.7-6.7C1249.5,977.2,1252.5,980.2,1252.5,983.9z"/>
		</g>
	</g>
	<g>
		<circle fill="#F05251" cx="1283.9" cy="1049.8" r="16.1"/>
		<g>
			<circle fill="#FFFFFF" cx="1283.9" cy="1043.2" r="4.3"/>
			<path fill="#FFFFFF" d="M1292.7,1057c0,4.8-17.5,4.8-17.5,0s3.9-8.8,8.8-8.8S1292.7,1052.2,1292.7,1057z"/>
		</g>
	</g>
</g>
<g>
	<circle fill="#EAE7F2" cx="1506.1" cy="1020.4" r="31.1"/>
	<g>
		<path fill="#8DC63F" d="M1515.2,985.5h15c0.5,0,1,0.4,1,1v4.7c0,0.8,0.8,1.2,1.5,0.8l16.1-9.9c0.6-0.4,0.6-1.3,0-1.6l-16.1-9.9
			c-0.6-0.4-1.5,0.1-1.5,0.8v4.7c0,0.5-0.4,1-1,1h-15c-0.6,0-1.2,0.5-1.2,1.2v6.2C1514.1,985,1514.6,985.5,1515.2,985.5z"/>
		<path fill="#8DC63F" d="M1496.9,1063.9h-15c-0.5,0-1,0.4-1,1v4.7c0,0.8-0.8,1.2-1.5,0.8l-16.1-9.9c-0.6-0.4-0.6-1.3,0-1.6
			l16.1-9.9c0.6-0.4,1.5,0.1,1.5,0.8v4.7c0,0.5,0.4,1,1,1h15c0.6,0,1.2,0.5,1.2,1.2v6.2C1498.1,1063.3,1497.6,1063.9,1496.9,1063.9
			L1496.9,1063.9z"/>
		<path fill="#8DC63F" d="M1543.9,1049.7h-26c11.4-4.7,19.5-15.9,19.5-29c0-17.3-14.1-31.3-31.3-31.3h-37.8c-0.6,0-1.2,0.5-1.2,1.2
			c0,0.6,0.5,1.2,1.2,1.2h26c-11.4,4.7-19.5,15.9-19.5,29c0,17.3,14.1,31.3,31.3,31.3h37.8c0.6,0,1.2-0.5,1.2-1.2
			C1545,1050.2,1544.5,1049.7,1543.9,1049.7z M1477.1,1020.6c0-16,13-29,29-29s29,13,29,29s-13,29-29,29
			C1490.1,1049.7,1477.1,1036.6,1477.1,1020.6z"/>
		<g>
			<path fill="#EAE7F2" d="M1469.2,977h39.3c0.5,0,0.9,0.4,0.9,0.9v6.7c0,0.5-0.4,0.9-0.9,0.9h-39.3c-0.5,0-0.9-0.4-0.9-0.9v-6.7
				C1468.3,977.4,1468.7,977,1469.2,977L1469.2,977z"/>
			<path fill="#EAE7F2" d="M1503.7,1055.3h39.3c0.5,0,0.9,0.4,0.9,0.9v6.7c0,0.5-0.4,0.9-0.9,0.9h-39.3c-0.5,0-0.9-0.4-0.9-0.9v-6.7
				C1502.7,1055.7,1503.1,1055.3,1503.7,1055.3z"/>
		</g>
	</g>
	<g>
		<path fill="#8DC63F" d="M1507.9,1018.2c2.5,0.8,4.6,1.5,6.1,2.2c1.6,0.7,2.9,1.8,4,3.2c1.1,1.4,1.6,3.4,1.6,5.8
			c0,1.9-0.5,3.6-1.4,5.2s-2.4,2.9-4.3,3.8c-1.9,1-4.2,1.4-7,1.4h-0.1v4.3h-1.8v-4.4c-3.5-0.3-6.4-1.4-8.7-3.3
			c-2.2-1.9-3.5-4.4-3.7-7.4h6.5c0.1,1.4,0.7,2.7,1.7,3.8c1,1.1,2.4,1.9,4.1,2.1v-12.1c-2.9-0.9-5.2-1.7-6.7-2.3
			c-1.5-0.7-2.9-1.7-4.1-3.2s-1.8-3.4-1.8-5.9c0-2,0.5-3.8,1.6-5.3s2.5-2.7,4.4-3.6c1.9-0.9,4.1-1.3,6.5-1.3v-4.5h1.8v4.6
			c3.5,0.2,6.3,1.3,8.3,3.1c2.1,1.8,3.3,4.1,3.6,6.9h-6.6c-0.2-1.3-0.8-2.4-1.7-3.3c-0.9-0.9-2.1-1.6-3.7-1.8v11.8L1507.9,1018.2z
			 M1500.6,1014.9c1,0.9,2.5,1.7,4.4,2.4V1006c-1.9,0-3.3,0.5-4.4,1.4s-1.6,2.2-1.6,3.8C1499.1,1012.8,1499.6,1014,1500.6,1014.9z
			 M1511.5,1033.6c1.1-1,1.6-2.4,1.6-4s-0.5-2.9-1.6-3.8s-2.6-1.7-4.6-2.4v11.7C1508.8,1035.1,1510.4,1034.6,1511.5,1033.6z"/>
	</g>
</g>
<g>
	<polygon fill="#57BED1" points="125.9,298.9 266.5,379.5 409.3,298.9 409.3,336.1 267.6,417.5 125.9,336.1 	"/>
	<polygon fill="#24ADB8" points="125.9,373.3 267.6,455.5 409.3,373.3 409.3,410.5 267.6,492.9 125.9,410.5 	"/>
	<path fill="#89CED8" d="M342,261.6c0,0-3.9-69.6-74.4-69.9c-13.2-0.1-26.7,5.1-26.7,5.1c-28.1,15.6-114.2,64.7-114.2,64.7l-0.4-0.3
		c-0.2,0.2-0.4,0.3-0.4,0.3L267,345.1l142.3-83.4H342z"/>
</g>
</svg>
